<svg xmlns="http://www.w3.org/2000/svg" viewBox="0 0 900 550"><rect width="900" height="550" fill="#091b31"/><circle cx="720" cy="100" r="80" fill="#bfe2ff" opacity=".15"/><path d="M160 420c35-145 115-235 245-255 80-12 148 24 190 91 28 45 72 74 145 93-90 30-190 36-288 15-100-22-190-2-292 56z" fill="#edf6ff" opacity=".94"/><path d="M350 185c-35-55-15-105 35-125 3 42 25 66 66 73-20 28-52 46-101 52z" fill="#fff"/><path d="M280 310c95 42 190 39 278-10" fill="none" stroke="#193a5f" stroke-width="26"/><path d="M250 400c120 45 250 41 355-13" fill="none" stroke="#78b9f4" stroke-width="13"/><text x="450" y="500" fill="#bfe2ff" font-family="Arial" font-size="28" text-anchor="middle">CLUBPFERD · WEISSER GEN-3-ISLÄNDER</text></svg>
